HIERARCHY
ROOT Hips
{
	OFFSET -3.958830 18.904000 13.208200
	CHANNELS 6 Xposition Yposition Zposition Zrotation Yrotation Xrotation 
	JOINT LHipJoint
	{
		OFFSET 0.000000 0.000000 0.000000
		CHANNELS 3 Zrotation Yrotation Xrotation
		JOINT LeftUpLeg
		{
			OFFSET 1.800000 -1.400000 0.085000
			CHANNELS 3 Zrotation Yrotation Xrotation
			JOINT LeftLeg
			{
				OFFSET 2.215000 -6.000000 0.000000
				CHANNELS 3 Zrotation Yrotation Xrotation
				JOINT LeftFoot
				{
					OFFSET 2.500000 -6.900000 0.000000
					CHANNELS 3 Zrotation Yrotation Xrotation
					JOINT LeftToeBase
					{
						OFFSET 0.200000 -0.500000 1.950000
						CHANNELS 3 Zrotation Yrotation Xrotation
						End Site
						{
							OFFSET 0.000000 0.000000 0.000000
						}
					}
				}
			}
		}
	}
	JOINT RHipJoint
	{
		OFFSET 0.000000 0.000000 0.000000
		CHANNELS 3 Zrotation Yrotation Xrotation
		JOINT RightUpLeg
		{
			OFFSET -1.800000 -1.400000 0.085000
			CHANNELS 3 Zrotation Yrotation Xrotation
			JOINT RightLeg
			{
				OFFSET -2.215000 -6.000000 0.000000
				CHANNELS 3 Zrotation Yrotation Xrotation
				JOINT RightFoot
				{
					OFFSET -2.500000 -6.900000 0.000000
					CHANNELS 3 Zrotation Yrotation Xrotation
					JOINT RightToeBase
					{
						OFFSET -0.200000 -0.500000 1.950000
						CHANNELS 3 Zrotation Yrotation Xrotation
						End Site
						{
							OFFSET 0.000000 0.000000 0.000000
						}
					}
				}
			}
		}
	}
	JOINT LowerBack
	{
		OFFSET 0.000000 0.000000 0.000000
		CHANNELS 3 Zrotation Yrotation Xrotation
		JOINT Spine
		{
			OFFSET -0.087000 1.940000 -0.288900
			CHANNELS 3 Zrotation Yrotation Xrotation
			JOINT Spine1
			{
				OFFSET 0.000000 1.950000 0.060000
				CHANNELS 3 Zrotation Yrotation Xrotation
				JOINT Neck
				{
					OFFSET 0.000000 0.000000 0.000000
					CHANNELS 3 Zrotation Yrotation Xrotation
					JOINT Neck1
					{
						OFFSET 0.000000 1.600000 0.340000
						CHANNELS 3 Zrotation Yrotation Xrotation
						JOINT Head
						{
							OFFSET 0.000000 1.667000 -0.240000
							CHANNELS 3 Zrotation Yrotation Xrotation
							End Site
							{
								OFFSET 0.000000 0.000000 0.000000
							}
						}
					}
				}
				JOINT LeftShoulder
				{
					OFFSET 0.000000 0.000000 0.000000
					CHANNELS 3 Zrotation Yrotation Xrotation
					JOINT LeftArm
					{
						OFFSET 2.700000 1.550000 -0.730000
						CHANNELS 3 Zrotation Yrotation Xrotation
						JOINT LeftForeArm
						{
							OFFSET 5.450000 0.000000 0.000000
							CHANNELS 3 Zrotation Yrotation Xrotation
							JOINT LeftHand
							{
								OFFSET 3.450000 0.000000 0.000000
								CHANNELS 3 Zrotation Yrotation Xrotation
								JOINT LeftHandIndex1
								{
									OFFSET 0.750000 0.000000 0.000000
									CHANNELS 3 Zrotation Yrotation Xrotation
									End Site
									{
										OFFSET 0.000000 0.000000 0.000000
									}
								}
							}
						}
					}
				}
				JOINT RightShoulder
				{
					OFFSET 0.000000 0.000000 0.000000
					CHANNELS 3 Zrotation Yrotation Xrotation
					JOINT RightArm
					{
						OFFSET -2.700000 1.550000 -0.730000
						CHANNELS 3 Zrotation Yrotation Xrotation
						JOINT RightForeArm
						{
							OFFSET -5.450000 0.000000 0.000000
							CHANNELS 3 Zrotation Yrotation Xrotation
							JOINT RightHand
							{
								OFFSET -3.450000 0.000000 0.000000
								CHANNELS 3 Zrotation Yrotation Xrotation
								JOINT RightHandIndex1
								{
									OFFSET -0.750000 0.000000 0.000000
									CHANNELS 3 Zrotation Yrotation Xrotation
									End Site
									{
										OFFSET 0.000000 0.000000 0.000000
									}
								}
							}
						}
					}
				}
			}
		}
	}
}
MOTION
Frames: 10
Frame Time: 0.016667
-1.256330 17.567860 -4.574890 -2.764650 1.538769 4.853231 -15.339812 10.134420 5.684114 15.786748 -6.512955 -41.421563 -32.407058 18.422927 30.908742 0.287961 10.147171 1.053466 0.473500 0.395590 -0.066490 18.406043 -9.178721 3.568820 -22.645151 6.802719 -30.826322 25.071571 -11.975902 24.396255 -0.972433 -6.143149 1.966728 0.249620 0.729710 0.610110 -3.624769 0.115770 -9.644774 16.607135 2.786880 25.818141 4.795800 4.797648 18.346752 2.550112 3.228138 -18.687408 6.884749 -11.566458 31.793833 3.399550 -8.362740 -23.000280 -19.443159 -31.600604 8.673684 -42.517692 -20.739176 -8.255353 -153.274150 -81.858191 135.518940 -3.695059 2.615065 0.830920 0.219680 0.276000 0.518490 14.471472 34.630410 13.657470 26.396032 25.417386 -14.270475 -34.041535 14.865235 -8.462473 1.954541 -1.703559 -0.223780 0.632770 0.197620 0.125590 
-1.251370 17.480090 -4.577330 -2.471263 1.148842 4.797318 -15.358860 9.689539 5.880533 17.503116 -6.233367 -42.150133 -38.399105 19.583961 28.312780 0.473692 10.531390 0.960128 0.506080 0.444530 -0.049320 18.475880 -8.765559 3.797019 -26.777434 6.591281 -30.886240 30.261256 -13.518752 23.462452 -1.134032 -6.853480 1.725960 0.279080 0.722780 0.597930 -3.696469 0.126124 -9.882884 17.830958 2.271207 25.987097 4.581345 4.364295 19.069845 2.665728 2.919926 -18.871702 6.422655 -11.680351 31.275504 3.250840 -8.299070 -22.862140 -18.984603 -31.564431 9.069683 -40.238928 -20.432218 -6.614949 -179.028533 -75.599948 162.021734 -3.652358 3.016031 0.811780 0.220450 0.275800 0.534000 13.806058 34.721813 13.519952 24.920862 24.571968 -15.001523 -35.791447 13.243087 -8.554243 2.013818 -1.771428 -0.215330 0.635760 0.168110 0.131660 
-1.250200 17.381040 -4.578940 -2.372553 0.984959 4.850046 -15.395289 9.333772 6.029586 19.217543 -5.634711 -42.640031 -43.677229 20.161810 25.441729 0.621007 10.749937 0.916648 0.499750 0.447480 -0.042870 18.528664 -8.310404 4.072721 -30.785614 6.373206 -31.122778 35.561392 -14.802962 22.046652 -1.288655 -7.431684 1.532909 0.275000 0.712220 0.591700 -3.714846 -0.023442 -10.106990 19.139769 1.677039 26.507996 4.325759 4.117851 18.628554 2.825372 2.546526 -18.719381 5.729910 -11.837469 30.605153 2.770170 -8.200680 -23.122960 -19.543847 -31.153902 9.498490 -38.035824 -19.058664 -5.388008 174.173728 -69.030280 169.819015 -3.682725 3.093707 0.801800 0.217180 0.280990 0.526940 13.993318 34.476218 13.027190 23.630674 23.197317 -15.528508 -37.326710 12.464205 -8.571230 2.066203 -1.783101 -0.210070 0.632250 0.161440 0.132860 
-1.264730 17.254670 -4.578980 -2.242516 0.883661 4.975407 -15.439355 8.984200 6.183822 21.045672 -4.937605 -43.223274 -48.523481 20.549467 22.834756 0.752877 10.953699 0.882846 0.481790 0.440850 -0.072960 18.580801 -7.886282 4.318071 -34.482556 5.932999 -31.458902 40.370386 -15.954115 20.715636 -1.421919 -7.929184 1.388959 0.268180 0.733740 0.599210 -3.722352 -0.154677 -10.311437 19.952513 1.302511 26.670286 4.463691 3.866763 18.236319 2.705739 2.166379 -18.519289 5.062938 -11.837404 29.894423 2.394180 -8.182940 -22.726170 -19.574508 -30.863480 9.784715 -35.826962 -18.096782 -4.316134 169.926437 -63.354405 176.068893 -3.734562 3.138450 0.777440 0.239980 0.267660 0.533400 14.255109 34.246216 12.600870 22.408913 21.670781 -16.240780 -39.249354 12.385314 -8.871107 2.088822 -1.805328 -0.204080 0.628730 0.169960 0.146490 
-1.279090 17.132480 -4.575700 -2.662717 0.422820 4.704468 -15.487839 8.792440 6.322246 22.939245 -3.779680 -43.096739 -52.566450 20.791854 20.489226 0.872370 11.114319 0.850232 0.450650 0.406190 -0.094320 18.599601 -7.531996 4.487712 -36.972511 5.904641 -31.605639 44.328946 -16.858482 19.872047 -1.533542 -8.262568 1.296234 0.234510 0.732950 0.610920 -3.682597 -0.408511 -10.473442 21.258296 0.765707 27.551827 4.227735 3.924494 17.210995 2.867957 1.633102 -18.161190 3.971708 -11.921352 29.833474 2.034870 -8.366160 -22.739230 -20.541709 -30.176076 10.031645 -33.965316 -16.631065 -3.413557 169.611714 -58.906187 177.354504 -3.778581 3.155529 0.768400 0.241850 0.266080 0.520710 14.856803 33.908221 12.045181 20.881024 20.147296 -16.415293 -40.009269 12.461976 -8.745736 2.115562 -1.782008 -0.190380 0.609920 0.187680 0.151820 
-1.296100 17.026190 -4.574430 -3.009329 -0.213396 4.063852 -15.559188 8.802384 6.400452 24.187181 -2.913863 -42.460781 -54.977554 20.963057 19.142456 0.922218 11.242702 0.820196 0.413590 0.345630 -0.103210 18.558438 -7.256526 4.583910 -38.408160 5.978005 -31.445377 47.163277 -17.523328 19.402677 -1.614351 -8.476655 1.238238 0.197820 0.731360 0.618420 -3.526848 -0.863721 -10.578050 21.892144 0.251397 29.025115 4.063176 3.989738 16.365893 3.188569 1.083617 -18.103032 2.838664 -11.510237 30.243808 1.410640 -8.067230 -22.848350 -21.728049 -29.869676 10.292962 -31.644178 -15.177282 -3.148671 167.782194 -55.100962 -178.629343 -3.814422 3.148624 0.796280 0.240150 0.264530 0.501940 15.412030 34.109188 11.787620 18.915705 19.033613 -16.420778 -39.802134 12.279003 -8.328051 2.130127 -1.742058 -0.207380 0.599740 0.211520 0.134540 
-1.303880 16.930720 -4.571150 -3.511921 -0.909584 3.510063 -15.628913 8.874620 6.465763 25.169393 -2.343970 -42.256977 -55.854137 21.581225 19.303030 0.997858 11.399269 0.786595 0.400640 0.318250 -0.090780 18.508230 -7.040678 4.640003 -39.142293 6.099234 -31.559654 49.056169 -18.189008 19.484023 -1.688597 -8.628222 1.207370 0.163850 0.713590 0.628450 -3.365045 -1.321784 -10.648243 22.478902 -0.350524 30.524849 3.748514 4.049845 15.330566 3.591081 0.623810 -18.114215 1.811763 -11.403729 30.757303 0.624870 -7.950340 -22.911820 -22.622303 -29.522276 10.549887 -30.117535 -13.854236 -3.102978 166.203192 -52.122191 -174.676128 -3.823462 3.140849 0.812110 0.228120 0.284730 0.501670 15.479690 34.311223 11.525996 17.412485 18.391045 -15.978113 -38.904722 11.841169 -7.718062 2.158579 -1.707560 -0.199980 0.581780 0.199560 0.130840 
-1.298760 16.846040 -4.565220 -3.852539 -1.775473 3.416276 -15.672298 8.883735 6.509306 25.851561 -1.885740 -42.526901 -56.139344 22.496428 20.055115 1.101486 11.551717 0.751137 0.380480 0.303720 -0.084350 18.490168 -6.886977 4.714830 -39.885872 6.207294 -32.507033 50.190638 -18.975641 20.170910 -1.732815 -8.781667 1.170613 0.132430 0.692730 0.629420 -3.292814 -1.543010 -10.706664 22.832051 -0.655939 31.247725 3.218624 4.204358 14.475360 3.921487 0.468176 -18.178459 1.429753 -11.213398 30.984885 -0.158740 -7.665790 -22.053910 -23.463887 -29.264627 10.739855 -29.173800 -12.687443 -3.349357 165.469431 -50.596901 -172.453064 -3.835031 3.157143 0.777900 0.225350 0.290940 0.489910 15.606222 34.361059 11.418611 16.439644 17.958194 -15.339154 -37.615148 11.879723 -7.248134 2.195024 -1.687800 -0.170910 0.548410 0.185660 0.140090 
-1.287440 16.794530 -4.561040 -4.014556 -2.547771 3.127487 -15.710628 8.946578 6.503791 26.039915 -1.730637 -42.740764 -55.571796 23.676567 21.683444 1.087386 11.833267 0.656484 0.323120 0.203760 -0.093610 18.460692 -6.796373 4.766501 -40.264743 6.378283 -33.308837 50.604800 -19.576418 20.926012 -1.745120 -8.903141 1.131195 0.090560 0.718000 0.650680 -3.208700 -1.735193 -10.734227 22.795215 -0.721784 31.862954 2.923342 4.302656 14.418038 4.359928 0.509942 -18.553925 1.500880 -10.619462 31.378115 -1.217040 -7.027050 -21.434250 -23.795058 -29.426325 10.884152 -28.970722 -11.670640 -4.046399 164.958948 -50.609839 -171.961279 -3.898182 3.129906 0.807860 0.253590 0.265900 0.446670 15.058974 34.770770 11.590017 15.768451 17.702638 -15.061833 -36.158893 11.942337 -6.847871 2.157181 -1.634827 -0.205800 0.551490 0.252470 0.102870 
-1.269160 16.785120 -4.563400 -4.148647 -3.345424 2.573665 -15.712006 9.081358 6.432896 25.594545 -1.922090 -42.697579 -53.204728 24.344599 23.828082 1.061671 11.966661 0.595900 0.312610 0.177840 -0.093430 18.439031 -6.849384 4.757377 -39.732708 6.732093 -33.970598 49.521368 -20.327191 22.849625 -1.764125 -9.036736 1.078600 0.076730 0.720490 0.669900 -3.184768 -1.830657 -10.694610 22.773465 -0.892481 32.502667 2.574723 4.216783 15.028820 4.719478 0.133864 -18.906202 0.838173 -9.820007 32.050286 -1.410120 -6.659960 -21.354390 -23.814001 -29.660332 10.826927 -29.095619 -11.256706 -5.249253 163.893045 -52.272451 -171.386113 -3.897220 3.144537 0.820170 0.255160 0.266850 0.431240 14.480401 35.468170 11.902744 15.034825 17.967518 -14.941103 -34.432726 12.473395 -6.632726 2.136980 -1.609237 -0.204960 0.543590 0.276200 0.094720 
